<?xml version="1.0" encoding="utf-8"?>
<svg version="1.1" xmlns:xlink="http://www.w3.org/1999/xlink" width="304px" height="119px" xmlns="http://www.w3.org/2000/svg">
  <defs>
    <mask fill="white" id="clip1">
      <path d="M 303 118.466666666668  C 303 118.466666666668  0 118.466666666668  0 118.466666666668  L 0 43.068965517239  C 0 43.068965517239  42.7814690694316 1.22049763856398  58.3776435045289 1  C 93.4229607250729 0.504531722057038  82.4503136934441 72.641865098152  117.978540772533 75.7982832618026  C 141.453725419237 77.8838784435987  141.10481936981 30.7787425279568  165.017167381975 32.8798283261803  C 192.20823971854 35.26900298589  187.100105839713 90.5664565664416  207.592274678114 88.5021459227461  C 233.66756383286 85.8754109312449  221.847003810754 11.8084983967329  248.107296137339 9.18884120171799  C 270.581244542793 6.94689964567749  269.903837622979 75.6442051724925  287.592274678112 71.6781115879834  C 303.884138707953 68.0251569935753  303 1.72796934866011  303 1.72796934866011  L 303 118.466666666668  Z " fill-rule="evenodd" />
    </mask>
  </defs>
  <g transform="matrix(1 0 0 1 -56 -194 )">
    <path d="M 303 118.466666666668  C 303 118.466666666668  0 118.466666666668  0 118.466666666668  L 0 43.068965517239  C 0 43.068965517239  42.7814690694316 1.22049763856398  58.3776435045289 1  C 93.4229607250729 0.504531722057038  82.4503136934441 72.641865098152  117.978540772533 75.7982832618026  C 141.453725419237 77.8838784435987  141.10481936981 30.7787425279568  165.017167381975 32.8798283261803  C 192.20823971854 35.26900298589  187.100105839713 90.5664565664416  207.592274678114 88.5021459227461  C 233.66756383286 85.8754109312449  221.847003810754 11.8084983967329  248.107296137339 9.18884120171799  C 270.581244542793 6.94689964567749  269.903837622979 75.6442051724925  287.592274678112 71.6781115879834  C 303.884138707953 68.0251569935753  303 1.72796934866011  303 1.72796934866011  L 303 118.466666666668  Z " fill-rule="nonzero" fill="#f2f2f2" stroke="none" fill-opacity="0.16078431372549" transform="matrix(1 0 0 1 56 194 )" />
    <path d="M 303 118.466666666668  C 303 118.466666666668  0 118.466666666668  0 118.466666666668  L 0 43.068965517239  C 0 43.068965517239  42.7814690694316 1.22049763856398  58.3776435045289 1  C 93.4229607250729 0.504531722057038  82.4503136934441 72.641865098152  117.978540772533 75.7982832618026  C 141.453725419237 77.8838784435987  141.10481936981 30.7787425279568  165.017167381975 32.8798283261803  C 192.20823971854 35.26900298589  187.100105839713 90.5664565664416  207.592274678114 88.5021459227461  C 233.66756383286 85.8754109312449  221.847003810754 11.8084983967329  248.107296137339 9.18884120171799  C 270.581244542793 6.94689964567749  269.903837622979 75.6442051724925  287.592274678112 71.6781115879834  C 303.884138707953 68.0251569935753  303 1.72796934866011  303 1.72796934866011  L 303 118.466666666668  Z " stroke-width="2" stroke="#f2f2f2" fill="none" stroke-opacity="0.996078431372549" transform="matrix(1 0 0 1 56 194 )" mask="url(#clip1)" />
  </g>
</svg>